<svg xmlns="http://www.w3.org/2000/svg" width="27.108" height="32.935" viewBox="0 0 27.108 32.935">
  <g id="ايقونة_مقالات" data-name="ايقونة مقالات" transform="translate(-733.779 -369.458)">
    <path id="Path_39" data-name="Path 39" d="M759.451,384.317V373.683a3.725,3.725,0,0,0-3.725-3.725H738a3.725,3.725,0,0,0-3.725,3.725v24.486A3.725,3.725,0,0,0,738,401.893h6.446" fill="none" stroke="#0e76e5" stroke-linecap="round" stroke-linejoin="round" stroke-width="1"/>
    <line id="Line_24" data-name="Line 24" x2="15.45" transform="translate(739.14 376.034)" fill="none" stroke="#0e76e5" stroke-linecap="round" stroke-linejoin="round" stroke-width="1"/>
    <line id="Line_25" data-name="Line 25" x2="15.45" transform="translate(739.14 381.185)" fill="none" stroke="#0e76e5" stroke-linecap="round" stroke-linejoin="round" stroke-width="1"/>
    <line id="Line_26" data-name="Line 26" x2="7.725" transform="translate(739.14 386.337)" fill="none" stroke="#0e76e5" stroke-linecap="round" stroke-linejoin="round" stroke-width="1"/>
    <g id="Group_41" data-name="Group 41" transform="translate(748.438 387.845)">
      <path id="Path_40" data-name="Path 40" d="M802.5,445.765l-7.339,7.339-3.869.671h0l.671-3.869,7.339-7.339a2.182,2.182,0,0,1,3.078.12h0A2.182,2.182,0,0,1,802.5,445.765Z" transform="translate(-791.296 -441.988)" fill="none" stroke="#0e76e5" stroke-linecap="round" stroke-linejoin="round" stroke-width="1"/>
      <line id="Line_27" data-name="Line 27" x2="3.198" y2="3.198" transform="translate(7.216 1.373)" fill="none" stroke="#0e76e5" stroke-linecap="round" stroke-linejoin="round" stroke-width="1"/>
    </g>
  </g>
</svg>
